<mxfile host="app.diagrams.net" modified="2022-06-15T08:55:37.142Z" agent="5.0 (Macintosh; Intel Mac OS X 10_15_7) AppleWebKit/537.36 (KHTML, like Gecko) Chrome/102.0.0.0 Safari/537.36" etag="3AKSbTUA-9Uvth1Hux1x" version="20.0.1" type="github">
  <diagram id="T-g-LYez_434LapBceKL" name="Page-1">
    <mxGraphModel dx="1298" dy="834" grid="1" gridSize="10" guides="1" tooltips="1" connect="1" arrows="1" fold="1" page="1" pageScale="1" pageWidth="827" pageHeight="1169" math="0" shadow="0">
      <root>
        <mxCell id="0" />
        <mxCell id="1" parent="0" />
        <mxCell id="_T7aq7ISfoz5jXwDcb6F-9" value="" style="edgeStyle=orthogonalEdgeStyle;rounded=0;orthogonalLoop=1;jettySize=auto;html=1;" edge="1" parent="1" source="_T7aq7ISfoz5jXwDcb6F-1" target="_T7aq7ISfoz5jXwDcb6F-5">
          <mxGeometry relative="1" as="geometry" />
        </mxCell>
        <mxCell id="_T7aq7ISfoz5jXwDcb6F-1" value="Current Climb" style="rounded=0;whiteSpace=wrap;html=1;" vertex="1" parent="1">
          <mxGeometry x="40" y="120" width="120" height="60" as="geometry" />
        </mxCell>
        <mxCell id="_T7aq7ISfoz5jXwDcb6F-12" value="" style="edgeStyle=orthogonalEdgeStyle;rounded=0;orthogonalLoop=1;jettySize=auto;html=1;" edge="1" parent="1" source="_T7aq7ISfoz5jXwDcb6F-4" target="_T7aq7ISfoz5jXwDcb6F-6">
          <mxGeometry relative="1" as="geometry" />
        </mxCell>
        <mxCell id="_T7aq7ISfoz5jXwDcb6F-4" value="New openstack" style="rounded=0;whiteSpace=wrap;html=1;" vertex="1" parent="1">
          <mxGeometry x="340" y="120" width="120" height="60" as="geometry" />
        </mxCell>
        <mxCell id="_T7aq7ISfoz5jXwDcb6F-5" value="Ceph" style="points=[];aspect=fixed;html=1;align=center;shadow=0;dashed=0;image;image=img/lib/allied_telesis/storage/Datacenter_Server_Storage_Unit_Large.svg;" vertex="1" parent="1">
          <mxGeometry x="61.60000000000002" y="220" width="76.8" height="79.2" as="geometry" />
        </mxCell>
        <mxCell id="_T7aq7ISfoz5jXwDcb6F-6" value="Internal Ceph" style="points=[];aspect=fixed;html=1;align=center;shadow=0;dashed=0;image;image=img/lib/allied_telesis/storage/Datacenter_Server_Storage_Unit_Large.svg;" vertex="1" parent="1">
          <mxGeometry x="361.6" y="220" width="76.8" height="79.2" as="geometry" />
        </mxCell>
        <mxCell id="_T7aq7ISfoz5jXwDcb6F-8" value="" style="edgeStyle=orthogonalEdgeStyle;rounded=0;orthogonalLoop=1;jettySize=auto;html=1;" edge="1" parent="1" source="_T7aq7ISfoz5jXwDcb6F-7" target="_T7aq7ISfoz5jXwDcb6F-1">
          <mxGeometry relative="1" as="geometry" />
        </mxCell>
        <mxCell id="_T7aq7ISfoz5jXwDcb6F-7" value="" style="ellipse;shape=cloud;whiteSpace=wrap;html=1;" vertex="1" parent="1">
          <mxGeometry x="40" y="10" width="120" height="80" as="geometry" />
        </mxCell>
        <mxCell id="_T7aq7ISfoz5jXwDcb6F-11" value="" style="edgeStyle=orthogonalEdgeStyle;rounded=0;orthogonalLoop=1;jettySize=auto;html=1;" edge="1" parent="1" source="_T7aq7ISfoz5jXwDcb6F-10" target="_T7aq7ISfoz5jXwDcb6F-4">
          <mxGeometry relative="1" as="geometry" />
        </mxCell>
        <mxCell id="_T7aq7ISfoz5jXwDcb6F-13" value="" style="edgeStyle=orthogonalEdgeStyle;rounded=0;orthogonalLoop=1;jettySize=auto;html=1;" edge="1" parent="1" source="_T7aq7ISfoz5jXwDcb6F-10" target="_T7aq7ISfoz5jXwDcb6F-7">
          <mxGeometry relative="1" as="geometry" />
        </mxCell>
        <mxCell id="_T7aq7ISfoz5jXwDcb6F-14" value="Connection back to public range" style="edgeLabel;html=1;align=center;verticalAlign=middle;resizable=0;points=[];" vertex="1" connectable="0" parent="_T7aq7ISfoz5jXwDcb6F-13">
          <mxGeometry x="-0.1679" y="-2" relative="1" as="geometry">
            <mxPoint as="offset" />
          </mxGeometry>
        </mxCell>
        <mxCell id="_T7aq7ISfoz5jXwDcb6F-10" value="" style="outlineConnect=0;dashed=0;verticalLabelPosition=bottom;verticalAlign=top;align=center;html=1;shape=mxgraph.aws3.router;fillColor=#F58534;gradientColor=none;" vertex="1" parent="1">
          <mxGeometry x="365.5" y="14" width="69" height="72" as="geometry" />
        </mxCell>
      </root>
    </mxGraphModel>
  </diagram>
</mxfile>
